<svg width="17" height="17" viewBox="0 0 17 17" fill="none" xmlns="http://www.w3.org/2000/svg">
<path d="M14.875 14.875L10.625 10.625M2.125 7.08333C2.125 7.73447 2.25325 8.37923 2.50243 8.98081C2.75161 9.58238 3.11684 10.129 3.57726 10.5894C4.03769 11.0498 4.58429 11.4151 5.18586 11.6642C5.78743 11.9134 6.4322 12.0417 7.08333 12.0417C7.73447 12.0417 8.37923 11.9134 8.98081 11.6642C9.58238 11.4151 10.129 11.0498 10.5894 10.5894C11.0498 10.129 11.4151 9.58238 11.6642 8.98081C11.9134 8.37923 12.0417 7.73447 12.0417 7.08333C12.0417 6.4322 11.9134 5.78743 11.6642 5.18586C11.4151 4.58429 11.0498 4.03769 10.5894 3.57726C10.129 3.11684 9.58238 2.75161 8.98081 2.50243C8.37923 2.25325 7.73447 2.125 7.08333 2.125C6.4322 2.125 5.78743 2.25325 5.18586 2.50243C4.58429 2.75161 4.03769 3.11684 3.57726 3.57726C3.11684 4.03769 2.75161 4.58429 2.50243 5.18586C2.25325 5.78743 2.125 6.4322 2.125 7.08333Z" stroke="black" stroke-width="2" stroke-linecap="round" stroke-linejoin="round"/>
</svg>
