<svg width="40" height="40" viewBox="0 0 40 40" fill="none" xmlns="http://www.w3.org/2000/svg">
<path d="M30 0C32.6522 0 35.1957 0.972574 37.0711 2.70377C38.9464 4.43496 40 6.78296 40 9.23123V35.5279C39.9996 36.3871 39.7312 37.2281 39.2268 37.9502C38.7225 38.6723 38.0036 39.2452 37.156 39.6002C36.3084 39.9552 35.368 40.0774 34.4472 39.9523C33.5264 39.8271 32.6641 39.4598 31.9633 38.8943L20 29.2322L8.03667 38.8943C7.33594 39.4598 6.47363 39.8271 5.55281 39.9523C4.63198 40.0774 3.69158 39.9552 2.844 39.6002C1.99641 39.2452 1.2775 38.6723 0.773165 37.9502C0.268833 37.2281 0.000418456 36.3871 0 35.5279V9.23123C0 6.78296 1.05357 4.43496 2.92893 2.70377C4.8043 0.972574 7.34784 0 10 0H30Z" fill="black"/>
</svg>
