<svg width="40" height="40" viewBox="0 0 40 40" fill="none" xmlns="http://www.w3.org/2000/svg">
<path d="M17.48 0.893494C18.1926 0.315465 19.0824 0 20 0C20.9176 0 21.8074 0.315465 22.52 0.893494L37.776 13.2518C38.4697 13.8134 39.0293 14.5228 39.4141 15.3282C39.7988 16.1335 39.999 17.0146 40 17.9071V36.0006C40 37.0613 39.5786 38.0786 38.8284 38.8286C38.0783 39.5786 37.0609 40 36 40H30C28.9391 40 27.9217 39.5786 27.1716 38.8286C26.4214 38.0786 26 37.0613 26 36.0006V26.002C26 25.4716 25.7893 24.963 25.4142 24.588C25.0391 24.2129 24.5304 24.0022 24 24.0022H16C15.4696 24.0022 14.9609 24.2129 14.5858 24.588C14.2107 24.963 14 25.4716 14 26.002V36.0006C14 37.0613 13.5786 38.0786 12.8284 38.8286C12.0783 39.5786 11.0609 40 10 40H4C2.93913 40 1.92172 39.5786 1.17157 38.8286C0.421427 38.0786 1.17436e-07 37.0613 1.17436e-07 36.0006V17.9111C-0.000176747 17.0172 0.199424 16.1346 0.584211 15.3278C0.968999 14.521 1.52925 13.8103 2.224 13.2478L17.48 0.893494Z" fill="black"/>
</svg>
